<svg width="239" height="66" viewBox="0 0 239 66" fill="none" xmlns="http://www.w3.org/2000/svg">
<path d="M53.7531 5.64062C53.8781 6.39062 53.9406 6.90625 53.9406 7.1875C53.9406 7.6875 52.3313 9.60938 49.1125 12.9531L43.2531 18.9531C33.1281 29.9531 23.9719 40.4688 15.7844 50.5C11.7531 55.4375 8.72188 59.375 6.69063 62.3125C5.22188 64.4375 4.01875 65.5 3.08125 65.5C1.4875 65.5 0.690628 64.7344 0.690628 63.2031C0.690628 59.9844 14.3156 43.5781 41.5656 13.9844C43.5031 11.8906 46.1281 9.375 49.4406 6.4375C43.2844 7.625 36.0344 10.2969 27.6906 14.4531C26.9406 14.8281 26.3938 15.0156 26.05 15.0156C24.9563 15.0156 24.4094 14.1875 24.4094 12.5312C24.4094 10.7188 27.9406 8.5625 35.0031 6.0625C39.9406 4.28125 44.5031 2.9375 48.6906 2.03125C53.8469 0.9375 58.7375 0.390625 63.3625 0.390625C68.6125 0.390625 72.4563 1.39062 74.8938 3.39062C77.6125 5.60937 78.9719 9.26562 78.9719 14.3594C78.9719 19.0781 75.7688 23.8125 69.3625 28.5625C61.9563 34.0312 52.1438 36.9531 39.925 37.3281C40.7063 39.0781 41.8938 43.2656 43.4875 49.8906C44.9563 55.8906 45.9719 59.25 46.5344 59.9688C47.1281 60.6875 48.3469 61.0469 50.1906 61.0469C50.5656 61.0469 50.8313 61.1719 50.9875 61.4219C50.9563 62.0781 50.1906 62.6719 48.6906 63.2031C47.4406 63.6406 46.3938 63.8594 45.55 63.8594C44.4563 63.8594 43.3625 63.5 42.2688 62.7812C41.175 62.0625 40.3938 60.5 39.925 58.0938L38.0031 49.0938C37.2219 45.6562 36.4094 42.7031 35.5656 40.2344C35.2219 39.2969 34.6125 38.0781 33.7375 36.5781C32.5188 35.3594 31.9094 34.625 31.9094 34.375C31.9094 33.5625 33.3 33.1562 36.0813 33.1562C37.1125 33.1562 37.9563 33.5625 38.6125 34.375C43.3 34.375 49.0031 33.0312 55.7219 30.3438C62.4719 27.625 67.4719 24.6406 70.7219 21.3906C74.6594 17.4531 76.6281 14.1094 76.6281 11.3594C76.6281 6.82812 72.7375 4.5625 64.9563 4.5625C61.8938 4.5625 58.1594 4.92188 53.7531 5.64062ZM87.3063 53.2656C98.6188 43.2031 106.181 38.1719 109.994 38.1719C111.681 38.1719 112.525 39.0625 112.525 40.8438C112.525 42.75 109.838 46.375 104.463 51.7188C99.1188 57.0625 96.4469 60.2031 96.4469 61.1406C96.4469 62.0156 97.3063 62.4531 99.025 62.4531C99.4625 62.4531 99.6813 62.7031 99.6813 63.2031C99.6813 63.7969 98.9156 64.0938 97.3844 64.0938C94.6656 64.0938 93.3063 62.9531 93.3063 60.6719C93.3063 58.0469 95.4 54.5938 99.5875 50.3125C104.713 45.0625 107.478 42.0781 107.884 41.3594C107.916 40.9844 107.728 40.7969 107.322 40.7969C105.603 40.7969 101.228 43.7812 94.1969 49.75C88.9469 54.1875 84.7281 58 81.5406 61.1875C80.2594 62.4688 79.2125 63.4062 78.4 64C77.9313 64 77.4781 63.7031 77.0406 63.1094C76.6344 62.5156 76.4313 61.9688 76.4313 61.4688C76.4313 60.75 78.5719 57.6719 82.8531 52.2344L90.3063 42.8594C87.275 45.7031 83.4938 48.9062 78.9625 52.4688L69.9625 59.3594C65.4313 62.4531 61.9469 64 59.5094 64C59.1344 64 58.9469 63.8125 58.9469 63.4375C58.9469 62.875 59.2594 62.5156 59.8844 62.3594C62.4781 61.7031 64.7594 60.7656 66.7281 59.5469C70.3844 57.2969 75.8688 53.0781 83.1813 46.8906L92.65 38.875C94.65 37.1875 100.197 31.0156 109.291 20.3594C117.478 10.7656 121.963 5.96875 122.744 5.96875C123.869 5.96875 124.431 6.67188 124.431 8.07812C124.431 9.04688 121.291 13.2344 115.009 20.6406L87.3063 53.2656ZM126.062 56.4062C124.5 56.7812 121.562 58.2188 117.25 60.7188C113.438 62.9062 110.547 64 108.578 64C108.203 64 108.016 63.7969 108.016 63.3906C108.016 62.8281 108.422 62.4844 109.234 62.3594C111.141 62.0469 113.828 60.875 117.297 58.8438C121.109 56.6562 124.219 55.2812 126.625 54.7188C128.062 51.25 131.031 47.6094 135.531 43.7969C140.312 39.7031 144.391 37.6562 147.766 37.6562C150.266 37.6562 151.516 38.7188 151.516 40.8438C151.516 43.625 148.875 46.6562 143.594 49.9375C139.719 52.375 135.75 54.2812 131.688 55.6562C131.25 56.6562 131.031 57.7031 131.031 58.7969C131.031 60.4219 131.594 61.4844 132.719 61.9844C133.281 62.2031 134.344 62.3438 135.906 62.4062C137.031 62.4375 137.594 62.7031 137.594 63.2031C137.594 63.9844 135.672 64.375 131.828 64.375C127.766 64.375 125.734 62.6094 125.734 59.0781C125.734 58.2656 125.844 57.375 126.062 56.4062ZM132.25 53.7812C135.125 52.375 138.156 50.4688 141.344 48.0625C145.594 44.9062 147.719 42.4062 147.719 40.5625C147.719 39.8125 147.375 39.4375 146.688 39.4375C144.656 39.4375 141.891 41.3125 138.391 45.0625C135.266 48.4688 133.219 51.375 132.25 53.7812ZM183.991 33.3906L167.116 34.0469C166.178 34.0469 165.709 33.7969 165.709 33.2969C165.709 32.8906 166.475 32.5781 168.006 32.3594C170.163 32.0156 173.194 31.7188 177.1 31.4688C181.444 31.2188 184.491 30.9844 186.241 30.7656L192.944 22.75C196.538 18.5 198.709 16.375 199.459 16.375C200.397 16.375 200.866 16.9688 200.866 18.1562C200.866 19.4375 198.022 23.6406 192.334 30.7656C195.616 30.5469 198.334 30.4375 200.491 30.4375C201.928 30.4375 202.647 30.7188 202.647 31.2812C202.647 31.9062 200.913 32.3281 197.444 32.5469L190.319 32.7812L179.866 45.8594C173.272 54.4531 169.975 59.5781 169.975 61.2344C169.975 62.0156 170.506 62.4219 171.569 62.4531C172.631 62.4531 173.163 62.7031 173.163 63.2031C173.163 63.7969 172.475 64.0938 171.1 64.0938C168.319 64.0938 166.928 62.9688 166.928 60.7188C166.928 58.9375 167.834 56.3906 169.647 53.0781L173.725 46.2344L159.85 57.1562C154.069 61.7188 149.616 64 146.491 64C146.116 64 145.928 63.7969 145.928 63.3906C145.928 62.8594 146.241 62.5156 146.866 62.3594C147.928 62.1406 149.538 61.5938 151.694 60.7188C153.788 59.625 158.444 56.25 165.663 50.5938C171.006 46.4375 174.366 43.7344 175.741 42.4844C178.209 40.2344 180.959 37.2031 183.991 33.3906ZM219.559 33.3906L202.684 34.0469C201.747 34.0469 201.278 33.7969 201.278 33.2969C201.278 32.8906 202.044 32.5781 203.575 32.3594C205.731 32.0156 208.762 31.7188 212.669 31.4688C217.012 31.2188 220.059 30.9844 221.809 30.7656L228.512 22.75C232.106 18.5 234.278 16.375 235.028 16.375C235.966 16.375 236.434 16.9688 236.434 18.1562C236.434 19.4375 233.591 23.6406 227.903 30.7656C231.184 30.5469 233.903 30.4375 236.059 30.4375C237.497 30.4375 238.216 30.7188 238.216 31.2812C238.216 31.9062 236.481 32.3281 233.012 32.5469L225.887 32.7812L215.434 45.8594C208.841 54.4531 205.544 59.5781 205.544 61.2344C205.544 62.0156 206.075 62.4219 207.137 62.4531C208.2 62.4531 208.731 62.7031 208.731 63.2031C208.731 63.7969 208.044 64.0938 206.669 64.0938C203.887 64.0938 202.497 62.9688 202.497 60.7188C202.497 58.9375 203.403 56.3906 205.216 53.0781L209.294 46.2344L195.419 57.1562C189.637 61.7188 185.184 64 182.059 64C181.684 64 181.497 63.7969 181.497 63.3906C181.497 62.8594 181.809 62.5156 182.434 62.3594C183.497 62.1406 185.106 61.5938 187.262 60.7188C189.356 59.625 194.012 56.25 201.231 50.5938C206.575 46.4375 209.934 43.7344 211.309 42.4844C213.778 40.2344 216.528 37.2031 219.559 33.3906Z" fill="black"/>
</svg>
